<svg width="170" height="52" viewBox="0 0 170 52" fill="none" xmlns="http://www.w3.org/2000/svg">
<rect width="170" height="52" rx="12.4654" fill="#FF2424"/>
<path d="M66.854 32.5V31.129H70.6911C71.6281 31.129 72.338 30.9422 72.8209 30.5685C73.3038 30.1949 73.5452 29.6516 73.5452 28.9388V28.9216C73.5452 28.4445 73.4331 28.0449 73.2089 27.723C72.9847 27.4011 72.6484 27.1597 72.2001 26.9987C71.7574 26.8378 71.2056 26.7573 70.5445 26.7573H66.854V25.4208H70.1048C71.0475 25.4208 71.7546 25.2541 72.2259 24.9207C72.7031 24.5872 72.9416 24.0929 72.9416 23.4375V23.4203C72.9416 22.788 72.7261 22.2994 72.2949 21.9544C71.8695 21.6038 71.2717 21.4285 70.5014 21.4285H66.854V20.0575H70.8377C71.5965 20.0575 72.2489 20.1839 72.795 20.4369C73.3469 20.6898 73.7694 21.0491 74.0626 21.5147C74.3615 21.9746 74.5109 22.5207 74.5109 23.153V23.1702C74.5109 23.6014 74.4132 24.0066 74.2178 24.386C74.0281 24.7654 73.7723 25.0845 73.4504 25.3432C73.1284 25.6018 72.7663 25.7685 72.3639 25.8433V25.9812C72.933 26.0502 73.4245 26.2198 73.8384 26.49C74.2523 26.7602 74.5713 27.1108 74.7955 27.542C75.0254 27.9673 75.1404 28.4531 75.1404 28.9992V29.0164C75.1404 29.7407 74.9708 30.3644 74.6317 30.8876C74.2983 31.4049 73.8183 31.8044 73.1917 32.0861C72.5651 32.362 71.8092 32.5 70.9239 32.5H66.854ZM66.078 32.5V20.0575H67.63V32.5H66.078ZM80.0295 32.6638C79.4431 32.6638 78.9143 32.5517 78.4429 32.3275C77.9773 32.1034 77.6065 31.7843 77.3306 31.3704C77.0604 30.9565 76.9253 30.4679 76.9253 29.9046V29.8873C76.9253 29.0653 77.2185 28.4215 77.8048 27.9558C78.3969 27.4845 79.2333 27.2172 80.314 27.1539L83.72 26.947V28.1455L80.4951 28.3525C79.788 28.3927 79.2707 28.5393 78.943 28.7922C78.6211 29.0452 78.4601 29.3987 78.4601 29.8528V29.8701C78.4601 30.3415 78.6383 30.7094 78.9947 30.9738C79.3512 31.2325 79.7995 31.3618 80.3399 31.3618C80.8515 31.3618 81.3028 31.2612 81.6937 31.06C82.0903 30.8531 82.4007 30.5743 82.6249 30.2236C82.8548 29.873 82.9698 29.4763 82.9698 29.0337V26.1451C82.9698 25.5702 82.7945 25.1333 82.4438 24.8344C82.0989 24.5298 81.5816 24.3774 80.8917 24.3774C80.3341 24.3774 79.8771 24.478 79.5207 24.6792C79.1643 24.8804 78.9258 25.1621 78.8051 25.5242L78.7964 25.5501H77.2961L77.3047 25.4984C77.3852 25.0098 77.5864 24.5815 77.9083 24.2136C78.236 23.8457 78.6556 23.5611 79.1672 23.3599C79.6846 23.153 80.2767 23.0495 80.9435 23.0495C81.6965 23.0495 82.3346 23.1731 82.8577 23.4203C83.3866 23.6675 83.7861 24.0239 84.0563 24.4895C84.3322 24.9494 84.4702 25.5012 84.4702 26.1451V32.5H82.9698V31.129H82.8405C82.645 31.4567 82.4065 31.7355 82.1248 31.9654C81.8489 32.1953 81.5356 32.3707 81.1849 32.4914C80.8343 32.6063 80.4491 32.6638 80.0295 32.6638ZM90.9975 32.6638C90.1295 32.6638 89.3765 32.4655 88.7384 32.0689C88.1061 31.6722 87.6146 31.1117 87.2639 30.3874C86.9133 29.6631 86.7379 28.8124 86.7379 27.8351V27.8179C86.7379 26.8521 86.9104 26.0129 87.2553 25.3C87.6059 24.5872 88.0974 24.0354 88.7298 23.6445C89.3679 23.2478 90.1209 23.0495 90.9889 23.0495C91.742 23.0495 92.3915 23.1817 92.9376 23.4462C93.4837 23.7106 93.9206 24.067 94.2483 24.5154C94.576 24.9638 94.7858 25.461 94.8778 26.0071L94.8864 26.0588H93.3946L93.386 26.033C93.2711 25.5731 93.0095 25.1822 92.6014 24.8603C92.1932 24.5384 91.6557 24.3774 90.9889 24.3774C90.4313 24.3774 89.9484 24.5183 89.5403 24.7999C89.1379 25.0816 88.8246 25.4811 88.6004 25.9985C88.382 26.5101 88.2728 27.1166 88.2728 27.8179V27.8351C88.2728 28.5479 88.3849 29.1659 88.6091 29.689C88.8332 30.2121 89.1465 30.6174 89.5489 30.9048C89.9571 31.1922 90.4371 31.3359 90.9889 31.3359C91.6155 31.3359 92.1271 31.2008 92.5238 30.9307C92.9204 30.6605 93.2049 30.2667 93.3774 29.7494L93.3946 29.6976L94.8778 29.689L94.8605 29.7839C94.734 30.3415 94.5099 30.8387 94.1879 31.2756C93.866 31.7067 93.4406 32.0459 92.9118 32.2931C92.3829 32.5402 91.7448 32.6638 90.9975 32.6638ZM97.1369 32.5V19.5315H98.6372V32.5H97.1369ZM102.983 32.5L99.3616 27.9558L100.457 26.9987L104.863 32.5H102.983ZM98.4389 29.163L98.3699 27.2746H98.7666L102.785 23.2134H104.604L100.198 27.473L99.8358 27.8179L98.4389 29.163Z" fill="white"/>
</svg>
