<svg width="170" height="52" viewBox="0 0 170 52" fill="none" xmlns="http://www.w3.org/2000/svg">
<rect width="170" height="52" rx="12.4654" fill="#009F53"/>
<path d="M61.6726 32.5L66.2598 20.0575H67.4498V22.0579H66.9583L63.3023 32.5H61.6726ZM63.7506 28.9388L64.2335 27.6196H69.8555L70.3384 28.9388H63.7506ZM70.7523 32.5L67.0962 22.0579V20.0575H67.7947L72.382 32.5H70.7523ZM74.4428 35.6042V23.2134H75.9431V24.6965H76.0725C76.2622 24.3516 76.5007 24.0584 76.7882 23.8169C77.0756 23.5698 77.4032 23.3801 77.7711 23.2478C78.139 23.1156 78.5386 23.0495 78.9697 23.0495C79.7572 23.0495 80.4413 23.2507 81.0219 23.6531C81.6082 24.0498 82.0624 24.6074 82.3843 25.3259C82.7062 26.0445 82.8672 26.8866 82.8672 27.8524V27.8696C82.8672 28.8354 82.7062 29.6775 82.3843 30.3961C82.0624 31.1146 81.6082 31.6722 81.0219 32.0689C80.4413 32.4655 79.7572 32.6638 78.9697 32.6638C78.5443 32.6638 78.1419 32.5977 77.7625 32.4655C77.3889 32.3275 77.0555 32.1378 76.7623 31.8964C76.4749 31.655 76.2449 31.3676 76.0725 31.0341H75.9431V35.6042H74.4428ZM78.6248 31.3359C79.1939 31.3359 79.6796 31.198 80.082 30.922C80.4844 30.6404 80.792 30.2409 81.0047 29.7235C81.2231 29.2004 81.3323 28.5824 81.3323 27.8696V27.8524C81.3323 27.1281 81.2231 26.5072 81.0047 25.9899C80.792 25.4725 80.4844 25.0759 80.082 24.7999C79.6796 24.5183 79.1939 24.3774 78.6248 24.3774C78.0614 24.3774 77.5757 24.5183 77.1676 24.7999C76.7652 25.0816 76.4547 25.4811 76.2363 25.9985C76.0179 26.5158 75.9086 27.1338 75.9086 27.8524V27.8696C75.9086 28.5767 76.0179 29.1918 76.2363 29.7149C76.4547 30.2322 76.7652 30.6317 77.1676 30.9134C77.5757 31.1951 78.0614 31.3359 78.6248 31.3359ZM85.1867 35.6042V23.2134H86.687V24.6965H86.8163C87.006 24.3516 87.2446 24.0584 87.532 23.8169C87.8195 23.5698 88.1471 23.3801 88.515 23.2478C88.8829 23.1156 89.2824 23.0495 89.7136 23.0495C90.5011 23.0495 91.1852 23.2507 91.7658 23.6531C92.3521 24.0498 92.8062 24.6074 93.1282 25.3259C93.4501 26.0445 93.611 26.8866 93.611 27.8524V27.8696C93.611 28.8354 93.4501 29.6775 93.1282 30.3961C92.8062 31.1146 92.3521 31.6722 91.7658 32.0689C91.1852 32.4655 90.5011 32.6638 89.7136 32.6638C89.2882 32.6638 88.8858 32.5977 88.5064 32.4655C88.1327 32.3275 87.7993 32.1378 87.5062 31.8964C87.2187 31.655 86.9888 31.3676 86.8163 31.0341H86.687V35.6042H85.1867ZM89.3687 31.3359C89.9378 31.3359 90.4235 31.198 90.8259 30.922C91.2283 30.6404 91.5358 30.2409 91.7485 29.7235C91.967 29.2004 92.0762 28.5824 92.0762 27.8696V27.8524C92.0762 27.1281 91.967 26.5072 91.7485 25.9899C91.5358 25.4725 91.2283 25.0759 90.8259 24.7999C90.4235 24.5183 89.9378 24.3774 89.3687 24.3774C88.8053 24.3774 88.3196 24.5183 87.9114 24.7999C87.509 25.0816 87.1986 25.4811 86.9802 25.9985C86.7617 26.5158 86.6525 27.1338 86.6525 27.8524V27.8696C86.6525 28.5767 86.7617 29.1918 86.9802 29.7149C87.1986 30.2322 87.509 30.6317 87.9114 30.9134C88.3196 31.1951 88.8053 31.3359 89.3687 31.3359ZM96.0168 32.5V19.5315H97.5171V32.5H96.0168ZM101.173 35.7508C101.075 35.7508 100.963 35.745 100.837 35.7335C100.716 35.7278 100.604 35.7163 100.501 35.699V34.466C100.593 34.4832 100.693 34.4947 100.802 34.5005C100.912 34.5062 101.018 34.5091 101.121 34.5091C101.547 34.5091 101.895 34.3999 102.165 34.1814C102.441 33.9687 102.662 33.5951 102.829 33.0605L103.001 32.5086L99.5693 23.2134H101.173L104.027 31.7757L103.441 30.8617H104.139L103.553 31.7757L106.398 23.2134H107.976L104.346 33.0691C104.093 33.7589 103.826 34.2993 103.544 34.6902C103.268 35.0811 102.941 35.3541 102.561 35.5093C102.188 35.6703 101.725 35.7508 101.173 35.7508Z" fill="white"/>
</svg>
