<svg width="63" height="66" viewBox="0 0 63 66" fill="none" xmlns="http://www.w3.org/2000/svg">
<path d="M-41.0391 61.9766V3.61719C-41.0391 2.67969 -40.7526 1.9375 -40.1797 1.39062C-39.6068 0.817708 -38.8516 0.53125 -37.9141 0.53125H59C59.9375 0.53125 60.6797 0.817708 61.2266 1.39062C61.7995 1.9375 62.0859 2.67969 62.0859 3.61719V61.9766C62.0859 62.9141 61.7995 63.6693 61.2266 64.2422C60.6797 64.8151 59.9375 65.1016 59 65.1016H-37.9141C-38.8516 65.1016 -39.6068 64.8151 -40.1797 64.2422C-40.7526 63.6693 -41.0391 62.9141 -41.0391 61.9766ZM-33.8906 55.5703C-33.8906 57.1589 -33.1094 57.9531 -31.5469 57.9531H52.5938C54.1562 57.9531 54.9375 57.1589 54.9375 55.5703V10.0625C54.9375 8.47396 54.1562 7.67969 52.5938 7.67969H-31.5469C-33.1094 7.67969 -33.8906 8.47396 -33.8906 10.0625V55.5703ZM-29.8281 52.9531V12.6797C-29.8281 12.0547 -29.5156 11.7422 -28.8906 11.7422H1.57812C-0.453125 13.8255 -2.04167 16.6771 -3.1875 20.2969C-4.33333 23.8906 -4.90625 28.0443 -4.90625 32.7578C-4.90625 37.4714 -4.33333 41.651 -3.1875 45.2969C-2.01562 48.9167 -0.401042 51.7812 1.65625 53.8906H-28.8906C-29.5156 53.8906 -29.8281 53.5781 -29.8281 52.9531ZM-0.21875 32.7578C-0.21875 28.6953 0.210938 25.1406 1.07031 22.0938C1.95573 19.0469 3.19271 16.6771 4.78125 14.9844C6.39583 13.2917 8.25781 12.4453 10.3672 12.4453C12.5547 12.4453 14.4688 13.2917 16.1094 14.9844C17.776 16.6771 19.0651 19.0469 19.9766 22.0938C20.888 25.1406 21.3438 28.6953 21.3438 32.7578C21.3438 36.8203 20.888 40.375 19.9766 43.4219C19.0651 46.4688 17.776 48.8516 16.1094 50.5703C14.4688 52.263 12.5547 53.1094 10.3672 53.1094C8.25781 53.1094 6.39583 52.263 4.78125 50.5703C3.19271 48.8516 1.95573 46.4688 1.07031 43.4219C0.210938 40.375 -0.21875 36.8203 -0.21875 32.7578ZM19.3125 53.8906C21.3958 51.7812 23.0234 48.9167 24.1953 45.2969C25.3932 41.651 25.9922 37.4714 25.9922 32.7578C25.9922 28.0443 25.4062 23.8906 24.2344 20.2969C23.0625 16.6771 21.4349 13.8255 19.3516 11.7422H49.9375C50.5625 11.7422 50.875 12.0547 50.875 12.6797V52.9531C50.875 53.5781 50.5625 53.8906 49.9375 53.8906H19.3125Z" fill="#FF7B31" fill-opacity="0.52"/>
</svg>
